<svg width='200' height='200' fill="#ffffff" xmlns="http://www.w3.org/2000/svg" xmlns:xlink="http://www.w3.org/1999/xlink" version="1.1" x="0px" y="0px" viewBox="0 0 100 100" enable-background="new 0 0 100 100" xml:space="preserve"><path d="M87.036,21.754L72.372,6.403c-0.745-0.779-1.776-1.22-2.852-1.22H38.418c-2.178,0-3.944,1.766-3.944,3.944v10.862H15.815  c-2.178,0-3.944,1.766-3.944,3.944v67.305c0,2.178,1.766,3.944,3.944,3.944h45.767c2.178,0,3.944-1.766,3.944-3.944V80.376h18.657  c2.178,0,3.944-1.766,3.944-3.944V24.478C88.128,23.463,87.737,22.487,87.036,21.754z M79.835,25.635H68.16V13.414L79.835,25.635z   M57.639,41.166H44.987V27.878h0.231l12.42,13.242V41.166z M19.76,87.294V27.878h21.283v15.26c0,1.089,0.882,1.972,1.972,1.972  h14.624v42.183H19.76z M65.527,72.487V39.56c0-1.002-0.381-1.967-1.067-2.698L49.804,21.235c-0.745-0.795-1.787-1.246-2.877-1.246  h-4.565v-6.918h21.854v14.536c0,1.089,0.882,1.972,1.972,1.972H80.24v42.907H65.527z"/></svg>